<svg width="220" height="220" viewBox="0 0 220 220" fill="none" xmlns="http://www.w3.org/2000/svg">
  <circle cx="110" cy="110" r="104" fill="#0B0B0B" stroke="#2E7D32" stroke-width="5"/>
  <path d="M65 132C65 83 99 54 144 62C166 66 180 84 180 107C180 144 148 169 110 169C84 169 65 154 65 132Z" fill="#F5F5F5"/>
  <path d="M71 104C78 75 102 58 133 61C105 75 90 97 87 126C80 122 74 114 71 104Z" fill="#0B0B0B"/>
  <path d="M135 74C155 78 168 91 170 110C156 99 142 95 126 97C126 88 129 80 135 74Z" fill="#0B0B0B"/>
  <ellipse cx="123" cy="111" rx="20" ry="27" fill="#0B0B0B" transform="rotate(22 123 111)"/>
  <circle cx="128" cy="108" r="5" fill="#F5F5F5"/>
  <path d="M96 145C116 127 144 124 164 139" stroke="#2E7D32" stroke-width="8" stroke-linecap="round"/>
  <path d="M91 154C114 168 143 166 165 151" stroke="#2E7D32" stroke-width="4" stroke-linecap="round"/>
  <path d="M156 119C164 122 169 126 174 132" stroke="#0B0B0B" stroke-width="5" stroke-linecap="round"/>
</svg>
