<svg width="220" height="220" viewBox="0 0 220 220" fill="none" xmlns="http://www.w3.org/2000/svg">
  <circle cx="110" cy="110" r="104" fill="#0B0B0B" stroke="#2E7D32" stroke-width="6"/>
  <circle cx="73" cy="67" r="28" fill="#F5F5F5"/>
  <circle cx="147" cy="67" r="28" fill="#F5F5F5"/>
  <circle cx="110" cy="116" r="68" fill="#F5F5F5"/>
  <ellipse cx="82" cy="105" rx="24" ry="31" fill="#0B0B0B" transform="rotate(-22 82 105)"/>
  <ellipse cx="138" cy="105" rx="24" ry="31" fill="#0B0B0B" transform="rotate(22 138 105)"/>
  <circle cx="88" cy="106" r="7" fill="#F5F5F5"/>
  <circle cx="132" cy="106" r="7" fill="#F5F5F5"/>
  <ellipse cx="110" cy="128" rx="13" ry="9" fill="#0B0B0B"/>
  <path d="M95 148C104 157 116 157 125 148" stroke="#0B0B0B" stroke-width="7" stroke-linecap="round"/>
  <path d="M64 164C83 143 137 143 156 164" stroke="#2E7D32" stroke-width="8" stroke-linecap="round"/>
  <path d="M72 170C93 182 127 182 148 170" stroke="#2E7D32" stroke-width="5" stroke-linecap="round"/>
</svg>
